<svg width="1171" height="416" viewBox="0 0 1171 416" fill="none" xmlns="http://www.w3.org/2000/svg">
<path d="M1170 16C1170 7.16346 1162.84 0 1154 0H16C7.16344 0 0 7.16344 0 16V400C0 408.837 7.16344 416 16 416H1154C1162.84 416 1170 408.837 1170 400V16Z" fill="#FA7436"/>
<mask id="mask0_536_10" style="mask-type:alpha" maskUnits="userSpaceOnUse" x="3" y="55" width="480" height="361">
<rect x="482.5" y="55.5" width="360" height="479" transform="rotate(90 482.5 55.5)" fill="url(#paint0_linear_536_10)" stroke="#6246E5"/>
</mask>
<g mask="url(#mask0_536_10)">
<path d="M132.995 516.92C63.6624 516.92 7.45579 460.635 7.45579 391.202C7.45579 321.769 63.6624 265.484 132.995 265.484C202.328 265.484 258.535 321.769 258.535 391.202C258.535 460.635 202.328 516.92 132.995 516.92Z" stroke="#E5E5E5"/>
<path d="M146.263 521.902C68.6865 521.902 5.79748 458.925 5.79748 381.237C5.79748 303.549 68.6865 240.572 146.263 240.572C223.839 240.572 286.728 303.549 286.728 381.237C286.728 458.925 223.839 521.902 146.263 521.902Z" stroke="#E5E5E5"/>
<path d="M157.042 526.885C72.1388 526.885 3.30974 457.959 3.30975 372.934C3.30975 287.909 72.1388 218.983 157.042 218.983C241.946 218.983 310.775 287.909 310.775 372.934C310.775 457.959 241.946 526.885 157.042 526.885Z" stroke="#E5E5E5"/>
<path d="M172.798 530.206C81.4827 530.206 7.4562 456.076 7.4562 364.63C7.4562 273.184 81.4827 199.054 172.798 199.054C264.112 199.054 338.139 273.184 338.139 364.63C338.139 456.076 264.112 530.206 172.798 530.206Z" stroke="#E5E5E5"/>
<path d="M188.138 533.527C90.6404 533.527 11.602 454.378 11.602 356.741C11.602 259.104 90.6404 179.955 188.138 179.955C285.635 179.955 364.673 259.104 364.673 356.741C364.673 454.378 285.635 533.527 188.138 533.527Z" stroke="#E5E5E5"/>
<path d="M205.551 537.68C98.4366 537.68 11.602 450.723 11.602 343.456C11.602 236.188 98.4366 149.231 205.551 149.231C312.665 149.231 399.5 236.188 399.5 343.456C399.5 450.723 312.665 537.68 205.551 537.68Z" stroke="#E5E5E5"/>
</g>
<path d="M1164.18 25.68C1154.92 20.15 1139.65 33.47 1135.77 37.1C1136.55 34.7979 1137.91 32.733 1139.71 31.1C1139.75 31.0669 1139.78 31.0243 1139.81 30.9756C1139.83 30.9269 1139.84 30.8736 1139.84 30.82C1139.84 30.7684 1139.82 30.7176 1139.8 30.6722C1139.78 30.6268 1139.74 30.5883 1139.7 30.56C1138.84 29.9802 1137.83 29.6607 1136.8 29.64C1137.33 28.9837 1138.01 28.4669 1138.79 28.1342C1139.57 27.8014 1140.41 27.6627 1141.26 27.73C1141.32 27.7392 1141.38 27.7299 1141.44 27.7032C1141.5 27.6765 1141.54 27.6337 1141.58 27.58C1141.61 27.5253 1141.62 27.4632 1141.62 27.4C1141.62 27.3368 1141.61 27.2747 1141.58 27.22C1141.17 26.6016 1140.6 26.1021 1139.94 25.7719C1139.28 25.4418 1138.54 25.2928 1137.8 25.34C1139.11 24.34 1142.08 23.98 1143.28 23.94C1143.34 23.9394 1143.4 23.9201 1143.46 23.8846C1143.51 23.8491 1143.55 23.7988 1143.58 23.74C1143.6 23.6827 1143.61 23.6197 1143.6 23.558C1143.59 23.4963 1143.57 23.4381 1143.53 23.39C1142.37 22.0431 1140.73 21.2061 1138.96 21.06C1140.62 19.06 1145.54 18.46 1145.59 18.45C1145.66 18.4446 1145.72 18.4162 1145.78 18.3692C1145.83 18.3222 1145.86 18.2592 1145.88 18.19C1145.89 18.1513 1145.9 18.1097 1145.9 18.0676C1145.9 18.0255 1145.89 17.9837 1145.88 17.9447C1145.86 17.9057 1145.84 17.8702 1145.81 17.8402C1145.78 17.8102 1145.75 17.7864 1145.71 17.77C1144.15 16.7761 1142.38 16.1567 1140.54 15.96C1142.54 13.48 1148.9 11.96 1148.97 11.96C1149.03 11.9441 1149.1 11.9078 1149.14 11.8559C1149.19 11.804 1149.22 11.7391 1149.23 11.67C1149.23 11.6018 1149.22 11.5328 1149.19 11.4721C1149.16 11.4114 1149.11 11.3619 1149.05 11.33C1144.79 9.10999 1139.59 11.27 1139.35 11.33C1133.35 14.33 1133.08 24.28 1133.71 31.17C1131.35 22.8 1126.22 9.69 1117.15 9C1116.85 9 1109.78 8.99998 1105.9 13.57C1105.86 13.6256 1105.84 13.692 1105.84 13.76C1105.84 13.828 1105.86 13.8944 1105.9 13.95C1105.93 14.0098 1105.98 14.0578 1106.05 14.0881C1106.11 14.1184 1106.18 14.1295 1106.25 14.12C1106.34 14.12 1114.79 12.75 1118.25 14.85C1116.14 15.9444 1114.32 17.5329 1112.96 19.48C1112.92 19.5387 1112.89 19.6085 1112.89 19.68C1112.89 19.7515 1112.92 19.8213 1112.96 19.88C1113 19.9372 1113.05 19.9804 1113.12 20.0037C1113.19 20.027 1113.26 20.0292 1113.33 20.01C1113.4 20.01 1119.67 18.26 1122.55 19.96C1121.53 20.4515 1120.63 21.1409 1119.88 21.9875C1119.14 22.8342 1118.57 23.821 1118.22 24.89C1118.2 24.9508 1118.19 25.0162 1118.21 25.0784C1118.23 25.1406 1118.26 25.1967 1118.31 25.24C1118.35 25.2851 1118.41 25.3158 1118.47 25.3283C1118.53 25.3408 1118.6 25.3344 1118.66 25.31C1120.15 24.76 1124.03 23.67 1126.03 24.41C1125.11 24.6779 1124.28 25.192 1123.63 25.8968C1122.98 26.6017 1122.53 27.4706 1122.34 28.41C1122.33 28.4726 1122.33 28.5366 1122.36 28.5949C1122.38 28.6532 1122.42 28.7035 1122.48 28.74C1122.53 28.7716 1122.59 28.7882 1122.66 28.7882C1122.72 28.7882 1122.78 28.7716 1122.84 28.74C1123.83 28.2307 1124.93 27.9801 1126.04 28.0116C1127.15 28.0431 1128.24 28.3556 1129.2 28.92C1127.95 29.4256 1126.88 30.2927 1126.13 31.41C1126.1 31.4562 1126.09 31.5077 1126.09 31.56C1126.09 31.6123 1126.1 31.6638 1126.13 31.71C1126.15 31.7593 1126.17 31.8038 1126.21 31.8401C1126.25 31.8765 1126.3 31.9038 1126.35 31.92C1129.29 32.9759 1131.91 34.7781 1133.95 37.15C1129.01 35.24 1112.25 29.49 1106.37 37.15C1106.23 37.36 1102.92 42.35 1104.37 47.24C1104.39 47.3056 1104.43 47.3636 1104.48 47.4064C1104.53 47.4493 1104.6 47.4749 1104.67 47.48H1104.72C1104.78 47.4736 1104.83 47.4518 1104.88 47.4168C1104.93 47.3817 1104.97 47.3346 1105 47.28C1105 47.21 1107.92 40.77 1110.94 39.28C1110.76 41.2525 1111.04 43.2396 1111.78 45.08C1111.8 45.1458 1111.84 45.2025 1111.9 45.242C1111.96 45.2816 1112.03 45.3019 1112.1 45.3C1112.17 45.2989 1112.24 45.2751 1112.3 45.232C1112.35 45.1889 1112.4 45.1287 1112.42 45.06C1112.42 45.01 1114.07 39.93 1116.53 38.62C1116.42 39.5555 1116.49 40.5034 1116.75 41.4094C1117.01 42.3155 1117.44 43.1618 1118.03 43.9C1118.07 43.949 1118.12 43.9855 1118.18 44.005C1118.24 44.0245 1118.31 44.0262 1118.37 44.01C1118.43 43.9975 1118.48 43.9671 1118.53 43.9226C1118.57 43.8782 1118.6 43.8216 1118.62 43.76C1118.91 42.5 1119.88 39.4 1121.25 38.26C1121.04 39.0276 1121.04 39.837 1121.24 40.605C1121.45 41.373 1121.86 42.0719 1122.43 42.63C1122.47 42.672 1122.53 42.7006 1122.59 42.713C1122.65 42.7253 1122.72 42.7208 1122.78 42.7C1122.84 42.6765 1122.89 42.637 1122.93 42.5858C1122.97 42.5347 1122.99 42.4739 1123 42.41C1123.1 41.5062 1123.43 40.6416 1123.94 39.8907C1124.45 39.1399 1125.14 38.5253 1125.95 38.1C1125.75 39.192 1125.87 40.3184 1126.31 41.34C1126.33 41.388 1126.36 41.4303 1126.4 41.4634C1126.44 41.4965 1126.49 41.5194 1126.54 41.53C1126.59 41.5411 1126.64 41.5406 1126.69 41.5285C1126.74 41.5164 1126.79 41.4929 1126.83 41.46C1127.62 40.8403 1128.48 40.3197 1129.4 39.91C1129 40.2794 1128.69 40.7354 1128.49 41.2432C1128.29 41.7509 1128.21 42.2971 1128.26 42.84C1128.34 43.7932 1128.79 44.6752 1129.53 45.2921C1130.26 45.9089 1131.2 46.2103 1132.16 46.13C1132.94 46.0612 1133.68 45.7341 1134.26 45.2C1135.11 47.42 1138.36 58.06 1132.86 79.2C1125.44 81.43 1124.26 83.77 1123.23 85.84C1122.89 86.5921 1122.45 87.2899 1121.91 87.91C1121.38 88.649 1121.07 89.5177 1121.01 90.4209C1120.95 91.324 1121.14 92.2267 1121.56 93.03C1122.93 95.89 1127.44 99.03 1141.1 97.88C1150.5 97.08 1156.29 94.88 1158.31 91.34C1158.72 90.6619 1158.96 89.8975 1159.03 89.1076C1159.09 88.3177 1158.96 87.5241 1158.67 86.79C1156.67 82.01 1151.55 78.14 1146.67 77.67C1145.89 69.96 1143.5 51.89 1137.84 44.67C1138.08 44.6949 1138.32 44.6949 1138.56 44.67C1139.51 44.5861 1140.39 44.1274 1141.01 43.3946C1141.63 42.6617 1141.93 41.7144 1141.85 40.76C1141.78 40.0427 1141.51 39.3607 1141.05 38.8026C1140.6 38.2444 1139.99 37.8358 1139.3 37.63C1141.22 37.4626 1143.16 37.6422 1145.03 38.16C1145.07 38.1821 1145.12 38.1935 1145.17 38.1935C1145.22 38.1935 1145.27 38.1821 1145.32 38.16C1145.36 38.1322 1145.4 38.094 1145.42 38.0487C1145.45 38.0033 1145.46 37.9523 1145.47 37.9C1145.49 36.6563 1145.14 35.4337 1144.47 34.39C1145.48 34.4859 1146.46 34.8332 1147.31 35.4005C1148.16 35.9679 1148.85 36.7375 1149.33 37.64C1149.35 37.6962 1149.4 37.7437 1149.45 37.7773C1149.5 37.8108 1149.56 37.829 1149.63 37.83C1149.69 37.829 1149.75 37.8108 1149.8 37.7773C1149.86 37.7437 1149.9 37.6962 1149.93 37.64C1150.29 36.8305 1150.43 35.9376 1150.32 35.0568C1150.21 34.176 1149.87 33.3406 1149.33 32.64C1151.21 33.19 1153.53 36.04 1154.33 37.24C1154.36 37.2896 1154.41 37.3295 1154.46 37.3557C1154.52 37.382 1154.58 37.3938 1154.64 37.39V37.39C1154.7 37.3806 1154.76 37.3528 1154.81 37.3102C1154.86 37.2676 1154.89 37.2119 1154.91 37.15C1155.2 36.1583 1155.3 35.1178 1155.19 34.0882C1155.09 33.0587 1154.78 32.0602 1154.29 31.15C1157.36 31.45 1161.14 36.06 1161.18 36.15C1161.22 36.2045 1161.28 36.2442 1161.35 36.2638C1161.42 36.2835 1161.49 36.2821 1161.56 36.26C1161.63 36.2377 1161.68 36.1931 1161.72 36.1332C1161.76 36.0733 1161.78 36.0017 1161.78 35.93C1161.79 33.7374 1161.27 31.5743 1160.28 29.62C1163.99 29.9 1169.62 35.4 1169.68 35.46C1169.73 35.5085 1169.79 35.5403 1169.86 35.5511C1169.93 35.5618 1169.99 35.551 1170.06 35.52C1170.12 35.4914 1170.17 35.4443 1170.2 35.3852C1170.24 35.3261 1170.25 35.2579 1170.25 35.19C1169.82 29.62 1164.43 25.85 1164.18 25.68ZM1146.29 81.29C1146.16 82.3407 1145.72 83.3314 1145.05 84.1437C1144.37 84.9559 1143.47 85.5553 1142.46 85.87C1139.62 86.87 1135.61 86.21 1133.71 84.43C1133.32 84.1157 1133.03 83.6976 1132.87 83.2246C1132.72 82.7517 1132.7 82.2436 1132.82 81.76L1133.06 80.88C1135.52 81.7941 1138.14 82.1989 1140.76 82.07C1142.8 81.9877 1144.73 81.1208 1146.15 79.65C1146.24 80.56 1146.28 81.14 1146.29 81.29V81.29ZM1146.06 78.69C1142.63 83.3 1134.8 80.79 1133.23 80.22C1133.69 78.52 1134.09 76.8866 1134.44 75.32C1136.2 76.411 1138.28 76.8956 1140.35 76.7C1142.22 76.5011 1144.03 75.8972 1145.65 74.93C1145.82 76.39 1145.96 77.67 1146.06 78.69ZM1145.56 74.2C1139.56 77.8 1135.44 75.2 1134.56 74.61C1134.9 73.04 1135.18 71.54 1135.43 70.11C1137.04 70.6306 1138.74 70.831 1140.43 70.7C1141.97 70.5775 1143.47 70.1166 1144.82 69.35C1145.15 71.08 1145.37 72.77 1145.56 74.2ZM1135.56 69.43C1135.81 67.93 1136.01 66.49 1136.16 65.14C1137.48 65.624 1138.89 65.8117 1140.3 65.69C1141.61 65.5788 1142.88 65.1866 1144.03 64.54C1144.3 65.93 1144.53 67.3 1144.74 68.63C1143.35 69.3932 1141.82 69.8586 1140.24 69.9963C1138.66 70.1341 1137.08 69.9412 1135.58 69.43H1135.56ZM1136.23 64.43C1136.36 63.15 1136.46 61.93 1136.52 60.78C1137.65 61.1552 1138.84 61.298 1140.03 61.2C1141.12 61.1022 1142.19 60.7605 1143.14 60.2C1143.41 61.39 1143.67 62.6 1143.9 63.79C1142.75 64.4597 1141.47 64.8656 1140.14 64.978C1138.82 65.0904 1137.49 64.9067 1136.25 64.44L1136.23 64.43ZM1136.56 60.07C1136.56 59 1136.62 57.99 1136.61 57.07C1137.35 57.2044 1138.1 57.2414 1138.85 57.18C1140 57.1021 1141.11 56.7 1142.05 56.02C1142.38 57.18 1142.69 58.37 1142.97 59.57C1142 60.1134 1140.93 60.4405 1139.83 60.5286C1138.72 60.6167 1137.61 60.4636 1136.58 60.08L1136.56 60.07ZM1136.61 56.34C1136.61 55.15 1136.53 54.06 1136.44 53.06C1136.97 53.1817 1137.53 53.2188 1138.08 53.17C1139.07 53.0806 1140.02 52.7361 1140.84 52.17C1141.19 53.17 1141.53 54.17 1141.84 55.26C1141.09 55.7956 1140.24 56.1694 1139.35 56.3571C1138.45 56.5449 1137.52 56.5424 1136.63 56.35L1136.61 56.34ZM1136.38 52.34C1136.29 51.5 1136.19 50.73 1136.08 50.03C1136.39 50.0609 1136.71 50.0609 1137.03 50.03C1137.95 49.9656 1138.83 49.6162 1139.55 49.03C1139.92 49.82 1140.26 50.66 1140.6 51.53C1140.01 51.9788 1139.32 52.2861 1138.59 52.4283C1137.86 52.5704 1137.11 52.5436 1136.4 52.35L1136.38 52.34ZM1135.97 49.34C1135.82 48.54 1135.67 47.85 1135.52 47.26C1135.72 47.28 1135.93 47.28 1136.14 47.26C1136.89 47.2083 1137.6 46.885 1138.14 46.35C1138.55 46.9946 1138.93 47.6624 1139.28 48.35C1138.84 48.7508 1138.31 49.0486 1137.74 49.2216C1137.18 49.3945 1136.57 49.4384 1135.99 49.35L1135.97 49.34ZM1135.32 46.54C1135.13 45.88 1134.96 45.39 1134.83 45.05H1135.26C1135.79 45.0013 1136.3 44.8338 1136.76 44.56C1137.11 44.9435 1137.45 45.3475 1137.76 45.77C1137.46 46.102 1137.08 46.3491 1136.65 46.4861C1136.23 46.6231 1135.77 46.6451 1135.34 46.55L1135.32 46.54ZM1136.63 43.85C1136.3 44.075 1135.93 44.2324 1135.54 44.3131C1135.15 44.3938 1134.75 44.3961 1134.36 44.32C1133.74 44.1929 1133.18 43.8691 1132.76 43.397C1132.34 42.9248 1132.08 42.3295 1132.03 41.7C1131.99 41.3221 1132.03 40.9412 1132.15 40.5791C1132.26 40.217 1132.44 39.8809 1132.69 39.59V39.59C1132.93 39.287 1133.23 39.0367 1133.58 38.8545C1133.92 38.6723 1134.3 38.5619 1134.69 38.53H1135.12C1135.49 38.5487 1135.85 38.6404 1136.19 38.8C1136.65 39.0188 1137.05 39.3556 1137.34 39.7768C1137.64 40.198 1137.81 40.6887 1137.86 41.2C1137.91 41.7107 1137.82 42.2257 1137.61 42.6929C1137.4 43.1601 1137.06 43.5627 1136.65 43.86L1136.63 43.85ZM1139.63 12.02C1140.91 11.523 1142.26 11.2099 1143.63 11.09C1145.06 10.9411 1146.51 11.1084 1147.87 11.58C1145.78 12.16 1140.87 13.74 1139.63 16.16C1139.59 16.211 1139.58 16.2699 1139.58 16.33C1139.58 16.3901 1139.59 16.4491 1139.63 16.5C1139.66 16.5503 1139.7 16.5909 1139.76 16.6174C1139.81 16.6439 1139.87 16.6552 1139.93 16.65C1141.53 16.6882 1143.09 17.1174 1144.49 17.9C1142.71 18.23 1139.06 19.13 1138 21.19C1137.97 21.2402 1137.95 21.2971 1137.95 21.355C1137.95 21.4129 1137.97 21.4698 1138 21.52C1138.03 21.5714 1138.07 21.6134 1138.12 21.6416C1138.18 21.6698 1138.24 21.6831 1138.3 21.68C1139.84 21.6871 1141.32 22.2561 1142.47 23.28C1140.95 23.41 1137.52 23.9 1136.64 25.57C1136.6 25.624 1136.59 25.6864 1136.59 25.75C1136.59 25.8136 1136.6 25.876 1136.64 25.93C1136.67 25.9847 1136.72 26.0268 1136.79 26.0501C1136.85 26.0735 1136.91 26.0769 1136.98 26.06C1137.6 25.9346 1138.25 25.96 1138.86 26.1339C1139.47 26.3078 1140.03 26.6253 1140.5 27.06C1139.53 27.077 1138.59 27.3417 1137.76 27.8286C1136.93 28.3156 1136.24 29.0083 1135.76 29.84C1135.72 29.8929 1135.71 29.9533 1135.71 30.015C1135.71 30.0766 1135.72 30.1371 1135.76 30.19C1135.79 30.2419 1135.84 30.2834 1135.9 30.3098C1135.95 30.3363 1136.01 30.3467 1136.08 30.34C1137.02 30.2747 1137.97 30.461 1138.82 30.88C1137.12 32.5227 1135.83 34.5397 1135.05 36.77C1134.34 31.97 1132.12 15.82 1139.71 12.03L1139.63 12.02ZM1126.86 31.52C1127.67 30.56 1128.72 29.8434 1129.92 29.45C1129.98 29.4328 1130.03 29.3995 1130.07 29.3537C1130.12 29.3078 1130.14 29.2512 1130.16 29.19C1130.17 29.1284 1130.16 29.0653 1130.14 29.0073C1130.11 28.9493 1130.08 28.8984 1130.03 28.86C1129.04 28.118 1127.87 27.6458 1126.64 27.4898C1125.42 27.3338 1124.17 27.4993 1123.03 27.97C1123.84 25.47 1126.69 24.97 1126.82 24.91C1126.88 24.9018 1126.94 24.8746 1126.99 24.8317C1127.04 24.7889 1127.07 24.7325 1127.09 24.67C1127.1 24.6071 1127.1 24.5415 1127.08 24.4799C1127.06 24.4183 1127.02 24.3631 1126.98 24.32C1125.12 22.76 1120.69 23.97 1118.98 24.52C1119.81 22.665 1121.33 21.1989 1123.21 20.42C1123.26 20.4007 1123.31 20.3664 1123.35 20.3206C1123.39 20.2747 1123.42 20.2192 1123.43 20.16C1123.44 20.1017 1123.43 20.0418 1123.41 19.9858C1123.39 19.9298 1123.36 19.8797 1123.32 19.84C1121.04 17.89 1116.08 18.72 1113.98 19.19C1115.27 17.5025 1116.97 16.1708 1118.92 15.32C1118.97 15.2998 1119.02 15.2652 1119.06 15.2195C1119.1 15.1739 1119.13 15.1189 1119.14 15.06C1119.15 15.0017 1119.15 14.9412 1119.13 14.8848C1119.11 14.8285 1119.07 14.7784 1119.03 14.74C1116.32 12.46 1109.53 13.07 1107.03 13.38C1110.81 9.71997 1117.03 9.73999 1117.09 9.73999C1128.01 10.58 1133.18 31.33 1134.36 36.86C1132.34 34.501 1129.78 32.6711 1126.9 31.53L1126.86 31.52ZM1126.71 40.77C1126.44 39.7876 1126.44 38.7524 1126.71 37.77C1126.73 37.7106 1126.73 37.6472 1126.71 37.587C1126.69 37.5268 1126.66 37.4724 1126.62 37.43C1126.57 37.3862 1126.52 37.3555 1126.46 37.3413C1126.4 37.3272 1126.34 37.3302 1126.28 37.35C1125.31 37.6954 1124.44 38.2843 1123.77 39.0602C1123.09 39.836 1122.63 40.7726 1122.42 41.78C1122.05 41.1973 1121.82 40.5336 1121.77 39.8456C1121.71 39.1577 1121.82 38.466 1122.09 37.83C1122.12 37.778 1122.14 37.7172 1122.14 37.655C1122.14 37.5928 1122.12 37.532 1122.09 37.48C1122.04 37.4319 1121.99 37.3969 1121.93 37.3792C1121.86 37.3615 1121.8 37.3618 1121.74 37.38C1119.8 37.95 1118.6 41.5 1118.17 43.03C1117.3 41.612 1116.99 39.9219 1117.31 38.29C1117.32 38.2325 1117.32 38.1729 1117.3 38.1168C1117.28 38.0607 1117.25 38.0102 1117.21 37.97C1117.17 37.926 1117.11 37.895 1117.05 37.8808C1116.99 37.8666 1116.93 37.8698 1116.88 37.89C1114.5 38.58 1112.81 42.29 1112.13 44.06C1111.58 42.4188 1111.44 40.668 1111.72 38.96C1111.73 38.902 1111.73 38.8406 1111.72 38.7824C1111.7 38.7242 1111.67 38.6715 1111.63 38.63C1111.58 38.588 1111.53 38.5584 1111.47 38.5443C1111.41 38.5302 1111.35 38.5322 1111.3 38.55C1108.49 39.39 1105.83 44.25 1104.82 46.28C1104.09 41.99 1106.91 37.73 1106.93 37.7C1108.63 35.5 1111.36 34.51 1114.48 34.24C1121.53 33.64 1130.48 36.76 1133.79 38.01C1131.24 38.3515 1128.81 39.2979 1126.71 40.77ZM1132.51 38.92L1132.34 39.08H1132.04L1132.51 38.92ZM1128.88 42.92C1128.84 42.5357 1128.89 42.1488 1129 41.7813C1129.12 41.4138 1129.31 41.073 1129.56 40.7785C1129.81 40.484 1130.11 40.2416 1130.45 40.0651C1130.8 39.8886 1131.17 39.7815 1131.56 39.75H1131.86V39.8C1131.86 39.85 1131.81 39.91 1131.78 39.96C1131.71 40.0962 1131.65 40.2365 1131.6 40.38L1131.54 40.59C1131.5 40.7309 1131.47 40.8746 1131.45 41.02V41.21C1131.43 41.4262 1131.43 41.6438 1131.45 41.86C1131.46 42.0421 1131.49 42.2227 1131.54 42.4C1131.54 42.46 1131.54 42.52 1131.59 42.58L1131.71 42.92L1131.8 43.11C1131.84 43.2098 1131.9 43.3067 1131.96 43.4L1132.08 43.59C1132.13 43.6775 1132.2 43.761 1132.27 43.84L1132.42 44.01C1132.49 44.0916 1132.57 44.1684 1132.65 44.24L1132.82 44.38C1132.9 44.4522 1132.99 44.519 1133.09 44.58L1133.26 44.69C1133.4 44.7719 1133.55 44.8421 1133.71 44.9V44.9C1133.24 45.2925 1132.67 45.5303 1132.07 45.58C1131.67 45.6169 1131.28 45.5748 1130.9 45.4561C1130.53 45.3375 1130.18 45.1446 1129.88 44.8891C1129.58 44.6336 1129.34 44.3205 1129.16 43.9685C1128.99 43.6165 1128.88 43.2328 1128.86 42.84L1128.88 42.92ZM1158.03 87.21C1158.28 87.8583 1158.38 88.5571 1158.32 89.2512C1158.26 89.9453 1158.04 90.6159 1157.68 91.21C1156.37 93.49 1152.41 96.42 1141.01 97.4C1127.01 98.59 1123.18 95.11 1122.13 92.92C1121.77 92.2377 1121.61 91.4738 1121.65 90.7073C1121.7 89.9408 1121.94 89.1995 1122.37 88.56C1122.95 87.8919 1123.44 87.1404 1123.81 86.33C1124.81 84.33 1125.86 82.27 1132.62 80.16C1132.49 80.67 1132.35 81.16 1132.21 81.7C1132.04 82.3014 1132.06 82.9379 1132.25 83.5313C1132.44 84.1247 1132.8 84.6491 1133.29 85.04C1134.29 85.8369 1135.43 86.429 1136.66 86.7824C1137.89 87.1359 1139.18 87.2438 1140.45 87.1C1141.22 87.0338 1141.99 86.8726 1142.73 86.62C1143.86 86.2635 1144.87 85.5883 1145.62 84.6749C1146.38 83.7616 1146.86 82.6489 1147.01 81.47V81.4C1147.01 81.19 1146.92 80.15 1146.76 78.54C1149.19 78.9352 1151.5 79.9261 1153.46 81.4246C1155.42 82.923 1156.98 84.8828 1158.01 87.13L1158.03 87.21ZM1141.17 41.01C1141.2 41.3935 1141.16 41.7797 1141.04 42.1465C1140.92 42.5134 1140.74 42.8538 1140.49 43.1481C1140.24 43.4425 1139.94 43.6852 1139.6 43.8622C1139.25 44.0393 1138.88 44.1472 1138.5 44.18C1138.16 44.2125 1137.82 44.1854 1137.5 44.1C1137.56 44.05 1137.6 43.99 1137.66 43.93L1137.74 43.84C1137.83 43.73 1137.92 43.61 1138 43.49C1138.07 43.38 1138.13 43.26 1138.19 43.15L1138.25 43.02C1138.25 42.93 1138.32 42.84 1138.35 42.74C1138.38 42.64 1138.35 42.64 1138.4 42.59C1138.43 42.4982 1138.45 42.4047 1138.47 42.31V42.16V41.86C1138.47 41.8134 1138.47 41.7666 1138.47 41.72C1138.48 41.5702 1138.48 41.4198 1138.47 41.27C1138.47 41.12 1138.47 40.98 1138.4 40.83C1138.33 40.68 1138.4 40.74 1138.4 40.69C1138.4 40.64 1138.35 40.5 1138.32 40.41L1138.26 40.25C1138.22 40.1649 1138.19 40.0814 1138.15 40C1138.12 39.948 1138.1 39.8978 1138.07 39.85C1138.07 39.77 1137.98 39.69 1137.93 39.61L1137.84 39.48C1137.78 39.3867 1137.7 39.2996 1137.63 39.22L1137.57 39.14C1137.47 39.0383 1137.37 38.9415 1137.27 38.85L1137.15 38.76L1136.98 38.62C1137.27 38.4895 1137.59 38.4084 1137.92 38.38C1138.68 38.2952 1139.45 38.5153 1140.05 38.9925C1140.66 39.4697 1141.05 40.1657 1141.15 40.93L1141.17 41.01ZM1159.71 29.01C1159.65 29.0154 1159.59 29.0357 1159.54 29.0689C1159.49 29.1021 1159.45 29.1472 1159.43 29.2C1159.4 29.252 1159.38 29.3105 1159.38 29.37C1159.38 29.4295 1159.4 29.488 1159.43 29.54C1160.43 31.2075 1161 33.0975 1161.09 35.04C1159.72 33.54 1156.46 30.34 1153.72 30.58C1153.66 30.5841 1153.6 30.604 1153.56 30.6375C1153.51 30.671 1153.47 30.7168 1153.45 30.77C1153.42 30.822 1153.4 30.8805 1153.4 30.94C1153.4 30.9995 1153.42 31.058 1153.45 31.11C1154.43 32.6905 1154.78 34.5805 1154.45 36.41C1153.45 35.05 1150.73 31.82 1148.5 32.02C1148.43 32.0228 1148.37 32.0454 1148.32 32.0847C1148.27 32.1241 1148.23 32.1782 1148.21 32.24C1148.18 32.2994 1148.18 32.365 1148.19 32.4277C1148.21 32.4904 1148.24 32.5472 1148.29 32.59C1148.83 33.1446 1149.23 33.8245 1149.44 34.5695C1149.66 35.3144 1149.69 36.1012 1149.53 36.86C1148.91 35.9115 1148.05 35.1378 1147.05 34.6127C1146.04 34.0875 1144.92 33.8284 1143.79 33.86C1143.72 33.864 1143.66 33.8846 1143.61 33.9197C1143.56 33.9549 1143.51 34.0032 1143.49 34.06C1143.46 34.1173 1143.45 34.1803 1143.46 34.242C1143.47 34.3037 1143.5 34.3619 1143.54 34.41C1144.22 35.3319 1144.64 36.4258 1144.74 37.57C1142.87 37.1058 1140.95 36.9571 1139.04 37.13C1138.11 37.2154 1137.19 37.3658 1136.29 37.58C1140.29 33.93 1155.14 21.15 1163.78 26.32C1163.83 26.32 1168.52 29.63 1169.45 34.39C1167.71 32.69 1162.94 28.68 1159.71 28.96V29.01Z" fill="#E5E5E5"/>
<path d="M1118.18 49.68C1108.92 44.15 1093.65 57.47 1089.77 61.1C1090.55 58.7979 1091.91 56.733 1093.71 55.1C1093.75 55.0669 1093.78 55.0243 1093.81 54.9756C1093.83 54.9269 1093.84 54.8736 1093.84 54.82C1093.84 54.7684 1093.82 54.7176 1093.8 54.6722C1093.78 54.6268 1093.74 54.5883 1093.7 54.56C1092.84 53.9802 1091.83 53.6607 1090.8 53.64C1091.33 52.9837 1092.01 52.4669 1092.79 52.1342C1093.57 51.8014 1094.41 51.6627 1095.26 51.73C1095.32 51.7392 1095.38 51.7299 1095.44 51.7032C1095.5 51.6765 1095.54 51.6337 1095.58 51.58C1095.61 51.5253 1095.62 51.4632 1095.62 51.4C1095.62 51.3368 1095.61 51.2747 1095.58 51.22C1095.17 50.6016 1094.6 50.1021 1093.94 49.7719C1093.28 49.4418 1092.54 49.2928 1091.8 49.34C1093.11 48.34 1096.08 47.98 1097.28 47.94C1097.34 47.9394 1097.4 47.9201 1097.46 47.8846C1097.51 47.8491 1097.55 47.7988 1097.58 47.74C1097.6 47.6827 1097.61 47.6197 1097.6 47.558C1097.59 47.4963 1097.57 47.4381 1097.53 47.39C1096.37 46.0431 1094.73 45.2061 1092.96 45.06C1094.62 43.06 1099.54 42.46 1099.59 42.45C1099.66 42.4446 1099.72 42.4162 1099.78 42.3692C1099.83 42.3222 1099.86 42.2592 1099.88 42.19C1099.89 42.1513 1099.9 42.1097 1099.9 42.0676C1099.9 42.0255 1099.89 41.9837 1099.88 41.9447C1099.86 41.9057 1099.84 41.8702 1099.81 41.8402C1099.78 41.8102 1099.75 41.7864 1099.71 41.77C1098.15 40.7761 1096.38 40.1567 1094.54 39.96C1096.54 37.48 1102.9 35.96 1102.97 35.96C1103.03 35.9441 1103.1 35.9078 1103.14 35.8559C1103.19 35.804 1103.22 35.7391 1103.23 35.67C1103.23 35.6018 1103.22 35.5328 1103.19 35.4721C1103.16 35.4114 1103.11 35.3619 1103.05 35.33C1098.79 33.11 1093.59 35.27 1093.35 35.33C1087.35 38.33 1087.08 48.28 1087.71 55.17C1085.35 46.8 1080.22 33.69 1071.15 33C1070.85 33 1063.78 33 1059.9 37.57C1059.86 37.6256 1059.84 37.692 1059.84 37.76C1059.84 37.828 1059.86 37.8944 1059.9 37.95C1059.93 38.0098 1059.98 38.0578 1060.05 38.0881C1060.11 38.1184 1060.18 38.1295 1060.25 38.12C1060.34 38.12 1068.79 36.75 1072.25 38.85C1070.14 39.9444 1068.32 41.5329 1066.96 43.48C1066.92 43.5387 1066.89 43.6085 1066.89 43.68C1066.89 43.7515 1066.92 43.8213 1066.96 43.88C1067 43.9372 1067.05 43.9804 1067.12 44.0037C1067.19 44.027 1067.26 44.0292 1067.33 44.01C1067.4 44.01 1073.67 42.26 1076.55 43.96C1075.53 44.4515 1074.63 45.1409 1073.88 45.9875C1073.14 46.8342 1072.57 47.821 1072.22 48.89C1072.2 48.9508 1072.19 49.0162 1072.21 49.0784C1072.23 49.1406 1072.26 49.1967 1072.31 49.24C1072.35 49.2851 1072.41 49.3158 1072.47 49.3283C1072.53 49.3408 1072.6 49.3344 1072.66 49.31C1074.15 48.76 1078.03 47.67 1080.03 48.41C1079.11 48.6779 1078.28 49.192 1077.63 49.8968C1076.98 50.6017 1076.53 51.4706 1076.34 52.41C1076.33 52.4726 1076.33 52.5366 1076.36 52.5949C1076.38 52.6532 1076.42 52.7035 1076.48 52.74C1076.53 52.7716 1076.59 52.7882 1076.66 52.7882C1076.72 52.7882 1076.78 52.7716 1076.84 52.74C1077.83 52.2307 1078.93 51.9801 1080.04 52.0116C1081.15 52.0431 1082.24 52.3556 1083.2 52.92C1081.95 53.4256 1080.88 54.2927 1080.13 55.41C1080.1 55.4562 1080.09 55.5077 1080.09 55.56C1080.09 55.6123 1080.1 55.6638 1080.13 55.71C1080.15 55.7593 1080.17 55.8038 1080.21 55.8401C1080.25 55.8765 1080.3 55.9038 1080.35 55.92C1083.29 56.9759 1085.91 58.7781 1087.95 61.15C1083.01 59.24 1066.25 53.49 1060.37 61.15C1060.23 61.36 1056.92 66.35 1058.37 71.24C1058.39 71.3056 1058.43 71.3636 1058.48 71.4064C1058.53 71.4493 1058.6 71.4749 1058.67 71.48H1058.72C1058.78 71.4736 1058.83 71.4518 1058.88 71.4168C1058.93 71.3817 1058.97 71.3346 1059 71.28C1059 71.21 1061.92 64.77 1064.94 63.28C1064.76 65.2525 1065.04 67.2396 1065.78 69.08C1065.8 69.1458 1065.84 69.2025 1065.9 69.242C1065.96 69.2816 1066.03 69.3019 1066.1 69.3C1066.17 69.2989 1066.24 69.2751 1066.3 69.232C1066.35 69.1889 1066.4 69.1287 1066.42 69.06C1066.42 69.01 1068.07 63.93 1070.53 62.62C1070.42 63.5555 1070.49 64.5034 1070.75 65.4094C1071.01 66.3155 1071.44 67.1618 1072.03 67.9C1072.07 67.949 1072.12 67.9855 1072.18 68.005C1072.24 68.0245 1072.31 68.0262 1072.37 68.01C1072.43 67.9975 1072.48 67.9671 1072.53 67.9226C1072.57 67.8782 1072.6 67.8216 1072.62 67.76C1072.91 66.5 1073.88 63.4 1075.25 62.26C1075.04 63.0276 1075.04 63.837 1075.24 64.605C1075.45 65.373 1075.86 66.0719 1076.43 66.63C1076.47 66.672 1076.53 66.7006 1076.59 66.713C1076.65 66.7253 1076.72 66.7208 1076.78 66.7C1076.84 66.6765 1076.89 66.637 1076.93 66.5858C1076.97 66.5347 1076.99 66.4739 1077 66.41C1077.1 65.5062 1077.43 64.6416 1077.94 63.8907C1078.45 63.1399 1079.14 62.5253 1079.95 62.1C1079.75 63.192 1079.87 64.3184 1080.31 65.34C1080.33 65.388 1080.36 65.4303 1080.4 65.4634C1080.44 65.4965 1080.49 65.5194 1080.54 65.53C1080.59 65.5411 1080.64 65.5406 1080.69 65.5285C1080.74 65.5164 1080.79 65.4929 1080.83 65.46C1081.62 64.8403 1082.48 64.3197 1083.4 63.91C1083 64.2794 1082.69 64.7354 1082.49 65.2432C1082.29 65.7509 1082.21 66.2971 1082.26 66.84C1082.34 67.7932 1082.79 68.6752 1083.53 69.2921C1084.26 69.9089 1085.2 70.2103 1086.16 70.13C1086.94 70.0612 1087.68 69.7341 1088.26 69.2C1089.11 71.42 1092.36 82.06 1086.86 103.2C1079.44 105.43 1078.26 107.77 1077.23 109.84C1076.89 110.592 1076.45 111.29 1075.91 111.91C1075.38 112.649 1075.07 113.518 1075.01 114.421C1074.95 115.324 1075.14 116.227 1075.56 117.03C1076.93 119.89 1081.44 123.03 1095.1 121.88C1104.5 121.08 1110.29 118.88 1112.31 115.34C1112.72 114.662 1112.96 113.898 1113.03 113.108C1113.09 112.318 1112.96 111.524 1112.67 110.79C1110.67 106.01 1105.55 102.14 1100.67 101.67C1099.89 93.96 1097.5 75.89 1091.84 68.67C1092.08 68.6949 1092.32 68.6949 1092.56 68.67C1093.51 68.5861 1094.39 68.1274 1095.01 67.3946C1095.63 66.6617 1095.93 65.7144 1095.85 64.76C1095.78 64.0427 1095.51 63.3607 1095.05 62.8026C1094.6 62.2444 1093.99 61.8358 1093.3 61.63C1095.22 61.4626 1097.16 61.6422 1099.03 62.16C1099.07 62.1821 1099.12 62.1935 1099.17 62.1935C1099.22 62.1935 1099.27 62.1821 1099.32 62.16C1099.36 62.1322 1099.4 62.094 1099.42 62.0487C1099.45 62.0033 1099.46 61.9523 1099.47 61.9C1099.49 60.6563 1099.14 59.4337 1098.47 58.39C1099.48 58.4859 1100.46 58.8332 1101.31 59.4005C1102.16 59.9679 1102.85 60.7375 1103.33 61.64C1103.35 61.6962 1103.4 61.7437 1103.45 61.7773C1103.5 61.8108 1103.56 61.829 1103.63 61.83C1103.69 61.829 1103.75 61.8108 1103.8 61.7773C1103.86 61.7437 1103.9 61.6962 1103.93 61.64C1104.29 60.8305 1104.43 59.9376 1104.32 59.0568C1104.21 58.176 1103.87 57.3406 1103.33 56.64C1105.21 57.19 1107.53 60.04 1108.33 61.24C1108.36 61.2896 1108.41 61.3295 1108.46 61.3557C1108.52 61.382 1108.58 61.3938 1108.64 61.39V61.39C1108.7 61.3806 1108.76 61.3528 1108.81 61.3102C1108.86 61.2676 1108.89 61.2119 1108.91 61.15C1109.2 60.1583 1109.3 59.1178 1109.19 58.0882C1109.09 57.0587 1108.78 56.0602 1108.29 55.15C1111.36 55.45 1115.14 60.06 1115.18 60.15C1115.22 60.2045 1115.28 60.2442 1115.35 60.2638C1115.42 60.2835 1115.49 60.2821 1115.56 60.26C1115.63 60.2377 1115.68 60.1931 1115.72 60.1332C1115.76 60.0733 1115.78 60.0017 1115.78 59.93C1115.79 57.7374 1115.27 55.5743 1114.28 53.62C1117.99 53.9 1123.62 59.4 1123.68 59.46C1123.73 59.5085 1123.79 59.5403 1123.86 59.5511C1123.93 59.5618 1123.99 59.551 1124.06 59.52C1124.12 59.4914 1124.17 59.4443 1124.2 59.3852C1124.24 59.3261 1124.25 59.2579 1124.25 59.19C1123.82 53.62 1118.43 49.85 1118.18 49.68ZM1100.29 105.29C1100.16 106.341 1099.72 107.331 1099.05 108.144C1098.37 108.956 1097.47 109.555 1096.46 109.87C1093.62 110.87 1089.61 110.21 1087.71 108.43C1087.32 108.116 1087.03 107.698 1086.87 107.225C1086.72 106.752 1086.7 106.244 1086.82 105.76L1087.06 104.88C1089.52 105.794 1092.14 106.199 1094.76 106.07C1096.8 105.988 1098.73 105.121 1100.15 103.65C1100.24 104.56 1100.28 105.14 1100.29 105.29V105.29ZM1100.06 102.69C1096.63 107.3 1088.8 104.79 1087.23 104.22C1087.69 102.52 1088.09 100.887 1088.44 99.32C1090.2 100.411 1092.28 100.896 1094.35 100.7C1096.22 100.501 1098.03 99.8972 1099.65 98.93C1099.82 100.39 1099.96 101.67 1100.06 102.69ZM1099.56 98.2C1093.56 101.8 1089.44 99.2 1088.56 98.61C1088.9 97.04 1089.18 95.54 1089.43 94.11C1091.04 94.6306 1092.74 94.831 1094.43 94.7C1095.97 94.5775 1097.47 94.1166 1098.82 93.35C1099.15 95.08 1099.37 96.77 1099.56 98.2ZM1089.56 93.43C1089.81 91.93 1090.01 90.49 1090.16 89.14C1091.48 89.624 1092.89 89.8117 1094.3 89.69C1095.61 89.5788 1096.88 89.1866 1098.03 88.54C1098.3 89.93 1098.53 91.3 1098.74 92.63C1097.35 93.3932 1095.82 93.8586 1094.24 93.9963C1092.66 94.1341 1091.08 93.9412 1089.58 93.43H1089.56ZM1090.23 88.43C1090.36 87.15 1090.46 85.93 1090.52 84.78C1091.65 85.1552 1092.84 85.298 1094.03 85.2C1095.12 85.1022 1096.19 84.7605 1097.14 84.2C1097.41 85.39 1097.67 86.6 1097.9 87.79C1096.75 88.4597 1095.47 88.8656 1094.14 88.978C1092.82 89.0904 1091.49 88.9067 1090.25 88.44L1090.23 88.43ZM1090.56 84.07C1090.56 83 1090.62 81.99 1090.61 81.07C1091.35 81.2044 1092.1 81.2414 1092.85 81.18C1094 81.1021 1095.11 80.7 1096.05 80.02C1096.38 81.18 1096.69 82.37 1096.97 83.57C1096 84.1134 1094.93 84.4405 1093.83 84.5286C1092.72 84.6167 1091.61 84.4636 1090.58 84.08L1090.56 84.07ZM1090.61 80.34C1090.61 79.15 1090.53 78.06 1090.44 77.06C1090.97 77.1817 1091.53 77.2188 1092.08 77.17C1093.07 77.0806 1094.02 76.7361 1094.84 76.17C1095.19 77.17 1095.53 78.17 1095.84 79.26C1095.09 79.7956 1094.24 80.1694 1093.35 80.3571C1092.45 80.5449 1091.52 80.5424 1090.63 80.35L1090.61 80.34ZM1090.38 76.34C1090.29 75.5 1090.19 74.73 1090.08 74.03C1090.39 74.0609 1090.71 74.0609 1091.03 74.03C1091.95 73.9656 1092.83 73.6162 1093.55 73.03C1093.92 73.82 1094.26 74.66 1094.6 75.53C1094.01 75.9788 1093.32 76.2861 1092.59 76.4283C1091.86 76.5704 1091.11 76.5436 1090.4 76.35L1090.38 76.34ZM1089.97 73.34C1089.82 72.54 1089.67 71.85 1089.52 71.26C1089.72 71.28 1089.93 71.28 1090.14 71.26C1090.89 71.2083 1091.6 70.885 1092.14 70.35C1092.55 70.9946 1092.93 71.6624 1093.28 72.35C1092.84 72.7508 1092.31 73.0486 1091.74 73.2216C1091.18 73.3945 1090.57 73.4384 1089.99 73.35L1089.97 73.34ZM1089.32 70.54C1089.13 69.88 1088.96 69.39 1088.83 69.05H1089.26C1089.79 69.0013 1090.3 68.8338 1090.76 68.56C1091.11 68.9435 1091.45 69.3475 1091.76 69.77C1091.46 70.102 1091.08 70.3491 1090.65 70.4861C1090.23 70.6231 1089.77 70.6451 1089.34 70.55L1089.32 70.54ZM1090.63 67.85C1090.3 68.075 1089.93 68.2324 1089.54 68.3131C1089.15 68.3938 1088.75 68.3961 1088.36 68.32C1087.74 68.1929 1087.18 67.8691 1086.76 67.397C1086.34 66.9248 1086.08 66.3295 1086.03 65.7C1085.99 65.3221 1086.03 64.9412 1086.15 64.5791C1086.26 64.217 1086.44 63.8809 1086.69 63.59V63.59C1086.93 63.287 1087.23 63.0367 1087.58 62.8545C1087.92 62.6723 1088.3 62.5619 1088.69 62.53H1089.12C1089.49 62.5487 1089.85 62.6404 1090.19 62.8C1090.65 63.0188 1091.05 63.3556 1091.34 63.7768C1091.64 64.198 1091.81 64.6887 1091.86 65.2C1091.91 65.7107 1091.82 66.2257 1091.61 66.6929C1091.4 67.1601 1091.06 67.5627 1090.65 67.86L1090.63 67.85ZM1093.63 36.02C1094.91 35.523 1096.26 35.2099 1097.63 35.09C1099.06 34.9411 1100.51 35.1084 1101.87 35.58C1099.78 36.16 1094.87 37.74 1093.63 40.16C1093.59 40.211 1093.58 40.2699 1093.58 40.33C1093.58 40.3901 1093.59 40.4491 1093.63 40.5C1093.66 40.5503 1093.7 40.5909 1093.76 40.6174C1093.81 40.6439 1093.87 40.6552 1093.93 40.65C1095.53 40.6882 1097.09 41.1174 1098.49 41.9C1096.71 42.23 1093.06 43.13 1092 45.19C1091.97 45.2402 1091.95 45.2971 1091.95 45.355C1091.95 45.4129 1091.97 45.4698 1092 45.52C1092.03 45.5714 1092.07 45.6134 1092.12 45.6416C1092.18 45.6698 1092.24 45.6831 1092.3 45.68C1093.84 45.6871 1095.32 46.2561 1096.47 47.28C1094.95 47.41 1091.52 47.9 1090.64 49.57C1090.6 49.624 1090.59 49.6864 1090.59 49.75C1090.59 49.8136 1090.6 49.876 1090.64 49.93C1090.67 49.9847 1090.72 50.0268 1090.79 50.0501C1090.85 50.0735 1090.91 50.0769 1090.98 50.06C1091.6 49.9346 1092.25 49.96 1092.86 50.1339C1093.47 50.3078 1094.03 50.6253 1094.5 51.06C1093.53 51.077 1092.59 51.3417 1091.76 51.8286C1090.93 52.3156 1090.24 53.0083 1089.76 53.84C1089.72 53.8929 1089.71 53.9533 1089.71 54.015C1089.71 54.0766 1089.72 54.1371 1089.76 54.19C1089.79 54.2419 1089.84 54.2834 1089.9 54.3098C1089.95 54.3363 1090.01 54.3467 1090.08 54.34C1091.02 54.2747 1091.97 54.461 1092.82 54.88C1091.12 56.5227 1089.83 58.5397 1089.05 60.77C1088.34 55.97 1086.12 39.82 1093.71 36.03L1093.63 36.02ZM1080.86 55.52C1081.67 54.56 1082.72 53.8434 1083.92 53.45C1083.98 53.4328 1084.03 53.3995 1084.07 53.3537C1084.12 53.3078 1084.14 53.2512 1084.16 53.19C1084.17 53.1284 1084.16 53.0653 1084.14 53.0073C1084.11 52.9493 1084.08 52.8984 1084.03 52.86C1083.04 52.118 1081.87 51.6458 1080.64 51.4898C1079.42 51.3338 1078.17 51.4993 1077.03 51.97C1077.84 49.47 1080.69 48.97 1080.82 48.91C1080.88 48.9018 1080.94 48.8746 1080.99 48.8317C1081.04 48.7889 1081.07 48.7325 1081.09 48.67C1081.1 48.6071 1081.1 48.5415 1081.08 48.4799C1081.06 48.4183 1081.02 48.3631 1080.98 48.32C1079.12 46.76 1074.69 47.97 1072.98 48.52C1073.81 46.665 1075.33 45.1989 1077.21 44.42C1077.26 44.4007 1077.31 44.3664 1077.35 44.3206C1077.39 44.2747 1077.42 44.2192 1077.43 44.16C1077.44 44.1017 1077.43 44.0418 1077.41 43.9858C1077.39 43.9298 1077.36 43.8797 1077.32 43.84C1075.04 41.89 1070.08 42.72 1067.98 43.19C1069.27 41.5025 1070.97 40.1708 1072.92 39.32C1072.97 39.2998 1073.02 39.2652 1073.06 39.2195C1073.1 39.1739 1073.13 39.1189 1073.14 39.06C1073.15 39.0017 1073.15 38.9412 1073.13 38.8848C1073.11 38.8285 1073.07 38.7784 1073.03 38.74C1070.32 36.46 1063.53 37.07 1061.03 37.38C1064.81 33.72 1071.03 33.74 1071.09 33.74C1082.01 34.58 1087.18 55.33 1088.36 60.86C1086.34 58.501 1083.78 56.6711 1080.9 55.53L1080.86 55.52ZM1080.71 64.77C1080.44 63.7876 1080.44 62.7524 1080.71 61.77C1080.73 61.7106 1080.73 61.6472 1080.71 61.587C1080.69 61.5268 1080.66 61.4724 1080.62 61.43C1080.57 61.3862 1080.52 61.3555 1080.46 61.3413C1080.4 61.3272 1080.34 61.3302 1080.28 61.35C1079.31 61.6954 1078.44 62.2843 1077.77 63.0602C1077.09 63.836 1076.63 64.7726 1076.42 65.78C1076.05 65.1973 1075.82 64.5336 1075.77 63.8456C1075.71 63.1577 1075.82 62.466 1076.09 61.83C1076.12 61.778 1076.14 61.7172 1076.14 61.655C1076.14 61.5928 1076.12 61.532 1076.09 61.48C1076.04 61.4319 1075.99 61.3969 1075.93 61.3792C1075.86 61.3615 1075.8 61.3618 1075.74 61.38C1073.8 61.95 1072.6 65.5 1072.17 67.03C1071.3 65.612 1070.99 63.9219 1071.31 62.29C1071.32 62.2325 1071.32 62.1729 1071.3 62.1168C1071.28 62.0607 1071.25 62.0102 1071.21 61.97C1071.17 61.926 1071.11 61.895 1071.05 61.8808C1070.99 61.8666 1070.93 61.8698 1070.88 61.89C1068.5 62.58 1066.81 66.29 1066.13 68.06C1065.58 66.4188 1065.44 64.668 1065.72 62.96C1065.73 62.902 1065.73 62.8406 1065.72 62.7824C1065.7 62.7242 1065.67 62.6715 1065.63 62.63C1065.58 62.588 1065.53 62.5584 1065.47 62.5443C1065.41 62.5302 1065.35 62.5322 1065.3 62.55C1062.49 63.39 1059.83 68.25 1058.82 70.28C1058.09 65.99 1060.91 61.73 1060.93 61.7C1062.63 59.5 1065.36 58.51 1068.48 58.24C1075.53 57.64 1084.48 60.76 1087.79 62.01C1085.24 62.3515 1082.81 63.2979 1080.71 64.77ZM1086.51 62.92L1086.34 63.08H1086.04L1086.51 62.92ZM1082.88 66.92C1082.84 66.5357 1082.89 66.1488 1083 65.7813C1083.12 65.4138 1083.31 65.073 1083.56 64.7785C1083.81 64.484 1084.11 64.2416 1084.45 64.0651C1084.8 63.8886 1085.17 63.7815 1085.56 63.75H1085.86V63.8C1085.86 63.85 1085.81 63.91 1085.78 63.96C1085.71 64.0962 1085.65 64.2365 1085.6 64.38L1085.54 64.59C1085.5 64.7309 1085.47 64.8746 1085.45 65.02V65.21C1085.43 65.4262 1085.43 65.6438 1085.45 65.86C1085.46 66.0421 1085.49 66.2227 1085.54 66.4C1085.54 66.46 1085.54 66.52 1085.59 66.58L1085.71 66.92L1085.8 67.11C1085.84 67.2098 1085.9 67.3067 1085.96 67.4L1086.08 67.59C1086.13 67.6775 1086.2 67.761 1086.27 67.84L1086.42 68.01C1086.49 68.0916 1086.57 68.1684 1086.65 68.24L1086.82 68.38C1086.9 68.4522 1086.99 68.519 1087.09 68.58L1087.26 68.69C1087.4 68.7719 1087.55 68.8421 1087.71 68.9V68.9C1087.24 69.2925 1086.67 69.5303 1086.07 69.58C1085.67 69.6169 1085.28 69.5748 1084.9 69.4561C1084.53 69.3375 1084.18 69.1446 1083.88 68.8891C1083.58 68.6336 1083.34 68.3205 1083.16 67.9685C1082.99 67.6165 1082.88 67.2328 1082.86 66.84L1082.88 66.92ZM1112.03 111.21C1112.28 111.858 1112.38 112.557 1112.32 113.251C1112.26 113.945 1112.04 114.616 1111.68 115.21C1110.37 117.49 1106.41 120.42 1095.01 121.4C1081.01 122.59 1077.18 119.11 1076.13 116.92C1075.77 116.238 1075.61 115.474 1075.65 114.707C1075.7 113.941 1075.94 113.2 1076.37 112.56C1076.95 111.892 1077.44 111.14 1077.81 110.33C1078.81 108.33 1079.86 106.27 1086.62 104.16C1086.49 104.67 1086.35 105.16 1086.21 105.7C1086.04 106.301 1086.06 106.938 1086.25 107.531C1086.44 108.125 1086.8 108.649 1087.29 109.04C1088.29 109.837 1089.43 110.429 1090.66 110.782C1091.89 111.136 1093.18 111.244 1094.45 111.1C1095.22 111.034 1095.99 110.873 1096.73 110.62C1097.86 110.264 1098.87 109.588 1099.62 108.675C1100.38 107.762 1100.86 106.649 1101.01 105.47V105.4C1101.01 105.19 1100.92 104.15 1100.76 102.54C1103.19 102.935 1105.5 103.926 1107.46 105.425C1109.42 106.923 1110.98 108.883 1112.01 111.13L1112.03 111.21ZM1095.17 65.01C1095.2 65.3935 1095.16 65.7797 1095.04 66.1465C1094.92 66.5134 1094.74 66.8538 1094.49 67.1481C1094.24 67.4425 1093.94 67.6852 1093.6 67.8622C1093.25 68.0393 1092.88 68.1472 1092.5 68.18C1092.16 68.2125 1091.82 68.1854 1091.5 68.1C1091.56 68.05 1091.6 67.99 1091.66 67.93L1091.74 67.84C1091.83 67.73 1091.92 67.61 1092 67.49C1092.07 67.38 1092.13 67.26 1092.19 67.15L1092.25 67.02C1092.25 66.93 1092.32 66.84 1092.35 66.74C1092.38 66.64 1092.35 66.64 1092.4 66.59C1092.43 66.4982 1092.45 66.4047 1092.47 66.31V66.16V65.86C1092.47 65.8134 1092.47 65.7666 1092.47 65.72C1092.48 65.5702 1092.48 65.4198 1092.47 65.27C1092.47 65.12 1092.47 64.98 1092.4 64.83C1092.33 64.68 1092.4 64.74 1092.4 64.69C1092.4 64.64 1092.35 64.5 1092.32 64.41L1092.26 64.25C1092.22 64.1649 1092.19 64.0814 1092.15 64C1092.12 63.948 1092.1 63.8978 1092.07 63.85C1092.07 63.77 1091.98 63.69 1091.93 63.61L1091.84 63.48C1091.78 63.3867 1091.7 63.2996 1091.63 63.22L1091.57 63.14C1091.47 63.0383 1091.37 62.9415 1091.27 62.85L1091.15 62.76L1090.98 62.62C1091.27 62.4895 1091.59 62.4084 1091.92 62.38C1092.68 62.2952 1093.45 62.5153 1094.05 62.9925C1094.66 63.4697 1095.05 64.1657 1095.15 64.93L1095.17 65.01ZM1113.71 53.01C1113.65 53.0154 1113.59 53.0357 1113.54 53.0689C1113.49 53.1021 1113.45 53.1472 1113.43 53.2C1113.4 53.252 1113.38 53.3105 1113.38 53.37C1113.38 53.4295 1113.4 53.488 1113.43 53.54C1114.43 55.2075 1115 57.0975 1115.09 59.04C1113.72 57.54 1110.46 54.34 1107.72 54.58C1107.66 54.5841 1107.6 54.604 1107.56 54.6375C1107.51 54.671 1107.47 54.7168 1107.45 54.77C1107.42 54.822 1107.4 54.8805 1107.4 54.94C1107.4 54.9995 1107.42 55.058 1107.45 55.11C1108.43 56.6905 1108.78 58.5805 1108.45 60.41C1107.45 59.05 1104.73 55.82 1102.5 56.02C1102.43 56.0228 1102.37 56.0454 1102.32 56.0847C1102.27 56.1241 1102.23 56.1782 1102.21 56.24C1102.18 56.2994 1102.18 56.365 1102.19 56.4277C1102.21 56.4904 1102.24 56.5472 1102.29 56.59C1102.83 57.1446 1103.23 57.8245 1103.44 58.5695C1103.66 59.3144 1103.69 60.1012 1103.53 60.86C1102.91 59.9115 1102.05 59.1378 1101.05 58.6127C1100.04 58.0875 1098.92 57.8284 1097.79 57.86C1097.72 57.864 1097.66 57.8846 1097.61 57.9197C1097.56 57.9549 1097.51 58.0032 1097.49 58.06C1097.46 58.1173 1097.45 58.1803 1097.46 58.242C1097.47 58.3037 1097.5 58.3619 1097.54 58.41C1098.22 59.3319 1098.64 60.4258 1098.74 61.57C1096.87 61.1058 1094.95 60.9571 1093.04 61.13C1092.11 61.2154 1091.19 61.3658 1090.29 61.58C1094.29 57.93 1109.14 45.15 1117.78 50.32C1117.83 50.32 1122.52 53.63 1123.45 58.39C1121.71 56.69 1116.94 52.68 1113.71 52.96V53.01Z" fill="#E5E5E5"/>
<defs>
<linearGradient id="paint0_linear_536_10" x1="739.035" y1="68.4669" x2="490.704" y2="539.066" gradientUnits="userSpaceOnUse">
<stop stop-color="#747DEF"/>
<stop offset="1" stop-color="#5E3BE1"/>
</linearGradient>
</defs>
</svg>
